<svg width="26" height="16" viewBox="0 0 26 16" fill="none" xmlns="http://www.w3.org/2000/svg">
<path fill-rule="evenodd" clip-rule="evenodd" d="M25.25 8.00001C25.25 7.76794 25.1578 7.54538 24.9937 7.38129C24.8296 7.21719 24.6071 7.12501 24.375 7.12501H3.73725L9.2445 1.61951C9.32585 1.53815 9.39039 1.44157 9.43442 1.33528C9.47844 1.22898 9.50111 1.11506 9.50111 1.00001C9.50111 0.884955 9.47844 0.77103 9.43442 0.664736C9.39039 0.558442 9.32585 0.46186 9.2445 0.380506C9.16315 0.299153 9.06657 0.234619 8.96027 0.190591C8.85398 0.146563 8.74005 0.123901 8.625 0.123901C8.50995 0.123901 8.39602 0.146563 8.28973 0.190591C8.18343 0.234619 8.08685 0.299153 8.0055 0.380506L1.0055 7.38051C0.924014 7.46179 0.859364 7.55834 0.815253 7.66465C0.771142 7.77095 0.748436 7.88491 0.748436 8.00001C0.748436 8.1151 0.771142 8.22906 0.815253 8.33536C0.859364 8.44167 0.924014 8.53823 1.0055 8.61951L8.0055 15.6195C8.08685 15.7009 8.18343 15.7654 8.28973 15.8094C8.39602 15.8535 8.50995 15.8761 8.625 15.8761C8.74005 15.8761 8.85398 15.8535 8.96027 15.8094C9.06657 15.7654 9.16315 15.7009 9.2445 15.6195C9.32585 15.5382 9.39039 15.4416 9.43442 15.3353C9.47844 15.229 9.50111 15.1151 9.50111 15C9.50111 14.885 9.47844 14.771 9.43442 14.6647C9.39039 14.5584 9.32585 14.4619 9.2445 14.3805L3.73725 8.87501H24.375C24.6071 8.87501 24.8296 8.78282 24.9937 8.61872C25.1578 8.45463 25.25 8.23207 25.25 8.00001Z" fill="white" fill-opacity="0.6"/>
</svg>
