<svg width="26" height="16" viewBox="0 0 26 16" fill="none" xmlns="http://www.w3.org/2000/svg">
<path fill-rule="evenodd" clip-rule="evenodd" d="M0.750008 8.00001C0.750008 7.76794 0.842194 7.54538 1.00629 7.38129C1.17038 7.21719 1.39294 7.12501 1.62501 7.12501H22.2628L16.7555 1.61951C16.6742 1.53815 16.6096 1.44157 16.5656 1.33528C16.5216 1.22898 16.4989 1.11506 16.4989 1.00001C16.4989 0.884955 16.5216 0.77103 16.5656 0.664736C16.6096 0.558442 16.6742 0.46186 16.7555 0.380506C16.8369 0.299153 16.9334 0.234619 17.0397 0.190591C17.146 0.146563 17.26 0.123901 17.375 0.123901C17.4901 0.123901 17.604 0.146563 17.7103 0.190591C17.8166 0.234619 17.9132 0.299153 17.9945 0.380506L24.9945 7.38051C25.076 7.46179 25.1406 7.55834 25.1848 7.66465C25.2289 7.77095 25.2516 7.88491 25.2516 8.00001C25.2516 8.1151 25.2289 8.22906 25.1848 8.33536C25.1406 8.44167 25.076 8.53823 24.9945 8.61951L17.9945 15.6195C17.9132 15.7009 17.8166 15.7654 17.7103 15.8094C17.604 15.8535 17.4901 15.8761 17.375 15.8761C17.26 15.8761 17.146 15.8535 17.0397 15.8094C16.9334 15.7654 16.8369 15.7009 16.7555 15.6195C16.6742 15.5382 16.6096 15.4416 16.5656 15.3353C16.5216 15.229 16.4989 15.1151 16.4989 15C16.4989 14.885 16.5216 14.771 16.5656 14.6647C16.6096 14.5584 16.6742 14.4619 16.7555 14.3805L22.2628 8.87501H1.62501C1.39294 8.87501 1.17038 8.78282 1.00629 8.61872C0.842194 8.45463 0.750008 8.23207 0.750008 8.00001Z" fill="white"/>
</svg>
